<svg width="23" height="23" viewBox="0 0 23 23" fill="none" xmlns="http://www.w3.org/2000/svg">
<g clip-path="url(#clip0_40_355)">
<path d="M11.7233 21.1246C16.7859 21.1246 20.89 17.0205 20.89 11.9579C20.89 6.89532 16.7859 2.79126 11.7233 2.79126C6.6607 2.79126 2.55664 6.89532 2.55664 11.9579C2.55664 17.0205 6.6607 21.1246 11.7233 21.1246Z" stroke="black" stroke-width="2" stroke-linecap="round" stroke-linejoin="round"/>
<path d="M2.55664 11.958H20.89" stroke="black" stroke-width="2" stroke-linecap="round" stroke-linejoin="round"/>
<path d="M11.7233 2.79126C14.0161 5.30142 15.3192 8.55896 15.39 11.9579C15.3192 15.3569 14.0161 18.6144 11.7233 21.1246C9.43047 18.6144 8.12745 15.3569 8.05664 11.9579C8.12745 8.55896 9.43047 5.30142 11.7233 2.79126Z" stroke="black" stroke-width="2" stroke-linecap="round" stroke-linejoin="round"/>
</g>
<defs>
<clipPath id="clip0_40_355">
<rect width="22" height="22" fill="white" transform="translate(0.723633 0.958008)"/>
</clipPath>
</defs>
</svg>
