<svg width="236" height="31" viewBox="0 0 236 31" fill="none" xmlns="http://www.w3.org/2000/svg">
<path d="M5.3444 17.9758C5.3444 13.9867 8.8094 10.7402 13.0671 10.7402H23.8806V5.73291H13.0671C5.86107 5.73291 0 11.2243 0 17.9758C0 24.7274 5.86107 30.2188 13.0671 30.2188H27.2031V25.2114H13.0671C8.8094 25.2114 5.3444 21.965 5.3444 17.9758Z" fill="#D65656"/>
<path d="M50.0769 5.73291H41.2853C34.0793 5.73291 28.2183 11.2243 28.2183 17.9759C28.2183 24.7274 34.0793 30.2188 41.2853 30.2188H55.4213V5.64111H50.0769V5.73291ZM41.2853 25.2114C37.0276 25.2114 33.5627 21.965 33.5627 17.9759C33.5627 13.9867 37.0276 10.7403 41.2853 10.7403H50.0769V25.2114H41.2853Z" fill="#D65656"/>
<path d="M201.234 17.976C201.234 21.9651 197.77 25.2116 193.512 25.2116C189.254 25.2116 185.789 21.9651 185.789 17.976V5.74138H180.445V17.976C180.445 20.6883 181.398 23.1836 182.992 25.2116H170.816C166.558 25.2116 163.093 21.9651 163.093 17.976V11.0408H177.042V6.03348H163.093V0.341797H157.749V6.03348H155.264V11.0408H157.749V17.976C157.749 24.7275 163.61 30.2189 170.816 30.2189H193.36C193.414 30.2189 193.458 30.2189 193.503 30.2189C200.709 30.2189 206.57 24.7275 206.57 17.976V5.74138H201.226V17.976H201.234Z" fill="#D65656"/>
<path d="M217.758 11.0991H236V5.74121H217.758C213.358 5.74121 209.777 9.09613 209.777 13.2188C209.777 15.0215 210.463 16.6822 211.603 17.9758C212.966 19.5197 214.988 20.5379 217.259 20.6714C217.428 20.6798 217.589 20.6965 217.758 20.6965H228.019C228.188 20.6965 228.349 20.6798 228.518 20.6714C229.524 20.8884 230.282 21.7313 230.282 22.7328C230.282 23.9011 229.266 24.8526 228.019 24.8526H209.777V30.2104H228.019C232.419 30.2104 236 26.8555 236 22.7328C236 20.9301 235.314 19.2694 234.174 17.9758C232.811 16.4319 230.789 15.4137 228.518 15.2802C228.349 15.2718 228.188 15.2551 228.019 15.2551H217.758C217.589 15.2551 217.428 15.2718 217.259 15.2802C216.253 15.0632 215.495 14.2203 215.495 13.2188C215.495 12.0505 216.511 11.0991 217.758 11.0991Z" fill="#D65656"/>
<path d="M58.6016 18.2678V30.2103H63.946V18.2678C63.946 14.2787 67.4109 11.0322 71.6686 11.0322H78.0285V6.0249H71.6686C64.4626 6.0249 58.6016 11.5163 58.6016 18.2678Z" fill="#D65656"/>
<path d="M137.057 18.2679V25.2031H120.614C119.875 25.2031 119.163 25.1029 118.486 24.9193L131.419 12.8016L133.619 10.7402V5.73291H120.606C113.399 5.73291 107.538 11.2243 107.538 17.9758C107.538 20.6882 108.492 23.1835 110.086 25.2114H92.7522C92.0129 25.2114 91.3003 25.1113 90.6234 24.9277L103.557 12.8099L105.757 10.7486V5.74125H92.7433C85.5373 5.74125 79.6763 11.2326 79.6763 17.9842C79.6763 24.7357 85.5373 30.2271 92.7433 30.2271H142.375V18.2846C142.375 14.2954 145.84 11.049 150.098 11.049H152.004V6.04169H150.098C142.892 6.04169 137.031 11.5331 137.031 18.2846L137.057 18.2679ZM120.614 10.7402H126.075L114.148 21.9149C113.355 20.78 112.892 19.428 112.892 17.9758C112.892 13.9867 116.357 10.7402 120.614 10.7402ZM85.0385 17.9758C85.0385 13.9867 88.5034 10.7402 92.7612 10.7402H98.2214L86.2944 21.9149C85.5017 20.78 85.0385 19.428 85.0385 17.9758Z" fill="#D65656"/>
</svg>
