<svg width="265" height="36" viewBox="0 0 265 36" fill="none" xmlns="http://www.w3.org/2000/svg">
<path d="M6 21.13C6 16.35 9.89004 12.46 14.67 12.46H26.8101V6.46002H14.67C6.58004 6.46002 0 13.04 0 21.13C0 29.22 6.58004 35.8 14.67 35.8H30.54V29.8H14.67C9.89004 29.8 6 25.91 6 21.13Z" fill="#231815"/>
<path d="M56.2202 6.45998H46.3502C38.2602 6.45998 31.6802 13.04 31.6802 21.13C31.6802 29.22 38.2602 35.8 46.3502 35.8H62.2202V6.34998H56.2202V6.45998ZM46.3502 29.8C41.5702 29.8 37.6802 25.91 37.6802 21.13C37.6802 16.35 41.5702 12.46 46.3502 12.46H56.2202V29.8H46.3502Z" fill="#231815"/>
<path d="M225.92 21.13C225.92 25.91 222.03 29.8 217.25 29.8C212.47 29.8 208.58 25.91 208.58 21.13V6.47H202.58V21.13C202.58 24.38 203.65 27.37 205.44 29.8H191.77C186.99 29.8 183.1 25.91 183.1 21.13V12.82H198.76V6.82001H183.1V0H177.1V6.82001H174.31V12.82H177.1V21.13C177.1 29.22 183.68 35.8 191.77 35.8H217.08C217.14 35.8 217.19 35.8 217.24 35.8C225.33 35.8 231.91 29.22 231.91 21.13V6.47H225.91V21.13H225.92Z" fill="#231815"/>
<path d="M244.47 12.89H264.95V6.46997H244.47C239.53 6.46997 235.51 10.49 235.51 15.43C235.51 17.59 236.28 19.58 237.56 21.13C239.09 22.98 241.36 24.2 243.91 24.36C244.1 24.37 244.28 24.39 244.47 24.39H255.99C256.18 24.39 256.36 24.37 256.55 24.36C257.68 24.62 258.53 25.63 258.53 26.83C258.53 28.23 257.39 29.37 255.99 29.37H235.51V35.79H255.99C260.93 35.79 264.95 31.77 264.95 26.83C264.95 24.67 264.18 22.68 262.9 21.13C261.37 19.28 259.1 18.06 256.55 17.9C256.36 17.89 256.18 17.87 255.99 17.87H244.47C244.28 17.87 244.1 17.89 243.91 17.9C242.78 17.64 241.93 16.63 241.93 15.43C241.93 14.03 243.07 12.89 244.47 12.89Z" fill="#231815"/>
<path d="M65.79 21.48V35.79H71.79V21.48C71.79 16.7 75.68 12.81 80.46 12.81H87.6V6.81H80.46C72.37 6.81 65.79 13.39 65.79 21.48Z" fill="#231815"/>
<path d="M153.87 21.48V29.79H135.41C134.58 29.79 133.78 29.67 133.02 29.45L147.54 14.93L150.01 12.46V6.46002H135.4C127.31 6.46002 120.73 13.04 120.73 21.13C120.73 24.38 121.8 27.37 123.59 29.8H104.13C103.3 29.8 102.5 29.68 101.74 29.46L116.26 14.94L118.73 12.47V6.47002H104.12C96.0302 6.47002 89.4502 13.05 89.4502 21.14C89.4502 29.23 96.0302 35.81 104.12 35.81H159.84V21.5C159.84 16.72 163.73 12.83 168.51 12.83H170.65V6.83002H168.51C160.42 6.83002 153.84 13.41 153.84 21.5L153.87 21.48ZM135.41 12.46H141.54L128.15 25.85C127.26 24.49 126.74 22.87 126.74 21.13C126.74 16.35 130.63 12.46 135.41 12.46ZM95.4702 21.13C95.4702 16.35 99.3602 12.46 104.14 12.46H110.27L96.8802 25.85C95.9902 24.49 95.4702 22.87 95.4702 21.13Z" fill="#231815"/>
</svg>
